<svg xmlns="http://www.w3.org/2000/svg" width="1500" height="500" viewBox="0 0 1500 500" role="img" aria-label="Deserez GitHub Banner">
  <defs>
    <linearGradient id="bg" x1="0" y1="0" x2="1" y2="1">
      <stop offset="0%" stop-color="#fff8fb"/>
      <stop offset="50%" stop-color="#f8e9ef"/>
      <stop offset="100%" stop-color="#f4dde7"/>
    </linearGradient>
    <linearGradient id="accent" x1="0" y1="0" x2="1" y2="0">
      <stop offset="0%" stop-color="#d5a2b3"/>
      <stop offset="100%" stop-color="#b77d92"/>
    </linearGradient>
    <filter id="shadow" x="-20%" y="-20%" width="140%" height="140%">
      <feDropShadow dx="0" dy="10" stdDeviation="14" flood-color="#c998aa" flood-opacity="0.18"/>
    </filter>
  </defs>

  <rect width="1500" height="500" fill="url(#bg)"/>

  <g opacity="0.22">
    <path d="M1180 120c-35-52-105-57-140-10-35-47-105-42-140 10-29 44-15 102 24 139 30 28 73 58 116 93 43-35 86-65 116-93 39-37 53-95 24-139z"
          fill="#d5a2b3"/>
  </g>

  <g opacity="0.18">
    <text x="118" y="168" font-family="Brush Script MT, Lucida Handwriting, cursive" font-size="150" fill="#b77d92">DK</text>
  </g>

  <rect x="95" y="96" width="8" height="310" rx="4" fill="url(#accent)"/>

  <text x="135" y="190" font-family="Georgia, 'Times New Roman', serif" font-size="72" letter-spacing="10" fill="#6f6268" filter="url(#shadow)">
    D E S E R E Z
  </text>
  <text x="135" y="262" font-family="Georgia, 'Times New Roman', serif" font-size="72" letter-spacing="10" fill="#6f6268" filter="url(#shadow)">
    K R E N T Z
  </text>

  <text x="140" y="322" font-family="Arial, Helvetica, sans-serif" font-size="28" letter-spacing="4" fill="#8a717b">
    DEVELOPER ♥ WRITER ♥ SYSTEMS BUILDER
  </text>

  <text x="140" y="372" font-family="Arial, Helvetica, sans-serif" font-size="22" fill="#8a717b">
    Bots • AI workflows • community platforms • feminine, polished design
  </text>
</svg>
